{"glyphs":{"0":{"ha":686,"x_min":27,"x_max":659,"o":"m 343 -11 l 343 -11 q 110 74 192 -11 q 27 318 27 159 l 27 318 l 27 857 q 105 1115 27 1025 q 343 1204 184 1204 l 343 1204 q 581 1115 503 1204 q 659 857 659 1025 l 659 857 l 659 318 q 577 74 659 159 q 343 -11 495 -11 z m 343 209 l 343 209 q 387 234 371 209 q 402 290 402 259 l 402 290 l 402 880 q 393 953 402 922 q 343 985 384 985 l 343 985 q 293 953 302 985 q 284 880 284 922 l 284 880 l 284 290 q 300 234 284 259 q 343 209 316 209 z "},"1":{"ha":459,"x_min":17,"x_max":418,"o":"m 418 0 l 165 0 l 165 920 q 98 872 140 890 q 17 854 55 854 l 17 854 l 17 1045 q 94 1068 53 1050 q 171 1118 136 1086 q 226 1194 207 1149 l 226 1194 l 418 1194 l 418 0 z "},"2":{"ha":686,"x_min":39,"x_max":669,"o":"m 661 0 l 42 0 l 42 57 q 70 217 42 146 q 140 348 97 288 q 232 467 184 409 l 232 467 q 321 584 279 524 q 390 714 363 644 q 417 872 417 785 l 417 872 q 405 944 417 914 q 353 975 392 975 l 353 975 q 293 868 293 975 l 293 868 l 293 722 l 42 722 q 40 758 41 738 q 39 795 39 777 l 39 795 q 66 1014 39 924 q 162 1151 94 1104 q 356 1198 231 1198 l 356 1198 q 587 1115 505 1198 q 669 877 669 1031 l 669 877 q 642 693 669 772 q 570 549 615 614 q 472 420 526 484 l 472 420 q 398 327 434 374 q 336 225 363 279 l 336 225 l 661 225 l 661 0 z "},"3":{"ha":686,"x_min":26,"x_max":652,"o":"m 328 -14 l 328 -14 q 98 70 170 -14 q 26 321 26 153 l 26 321 l 26 446 l 271 446 l 271 321 q 283 240 271 273 q 336 208 295 208 l 336 208 q 390 243 378 208 q 401 359 401 279 l 401 359 l 401 389 q 381 497 401 451 q 300 543 360 543 l 300 543 q 287 543 292 543 q 277 542 281 543 l 277 542 l 277 756 q 371 784 338 756 q 404 876 404 811 l 404 876 q 345 977 404 977 l 345 977 q 294 947 307 977 q 281 872 281 918 l 281 872 l 281 836 l 34 836 q 33 856 33 844 q 33 878 33 867 l 33 878 q 109 1119 33 1042 q 344 1196 186 1196 l 344 1196 q 649 878 649 1196 l 649 878 q 625 733 649 790 q 537 652 602 675 l 537 652 q 612 590 588 628 q 644 496 637 552 q 652 359 652 439 l 652 359 q 577 83 652 180 q 328 -14 502 -14 z "},"4":{"ha":686,"x_min":12,"x_max":673,"o":"m 610 -1 l 366 -1 l 366 189 l 12 189 l 12 375 l 238 1194 l 610 1194 l 610 388 l 673 388 l 673 189 l 610 189 l 610 -1 z m 366 989 l 225 388 l 366 388 l 366 989 z "},"5":{"ha":686,"x_min":31,"x_max":663,"o":"m 343 -17 l 343 -17 q 118 51 205 -17 q 31 260 31 119 l 31 260 l 31 438 l 279 438 l 279 336 q 283 274 279 304 q 300 225 287 244 q 343 206 314 206 l 343 206 q 394 232 382 206 q 406 299 406 258 l 406 299 l 406 534 q 402 591 406 563 q 386 639 399 620 q 345 658 373 658 l 345 658 q 277 559 277 658 l 277 559 l 58 559 l 58 1194 l 627 1194 l 627 970 l 284 970 l 284 802 q 332 841 302 824 q 403 857 362 857 l 403 857 q 535 826 484 857 q 614 739 587 795 q 652 610 642 684 q 663 453 663 537 l 663 453 q 651 259 663 345 q 607 111 640 172 q 511 16 574 49 q 343 -17 448 -17 z "},"6":{"ha":686,"x_min":37,"x_max":670,"o":"m 359 -11 l 359 -11 q 164 32 235 -11 q 65 159 94 74 q 37 372 37 245 l 37 372 l 37 695 q 47 914 37 819 q 91 1074 58 1009 q 190 1171 124 1138 q 366 1204 256 1204 l 366 1204 q 506 1178 441 1204 q 611 1100 571 1152 q 651 970 651 1048 l 651 970 l 651 842 l 421 842 l 421 866 q 418 926 421 896 q 403 975 415 956 q 361 995 391 995 l 361 995 q 306 973 321 995 q 290 909 290 951 l 290 909 l 290 670 q 341 721 307 702 q 424 741 375 741 l 424 741 q 576 701 523 741 q 650 583 629 661 q 670 386 670 504 l 670 386 q 641 177 670 267 q 544 39 612 88 q 359 -11 475 -11 z m 350 209 l 350 209 q 400 244 392 209 q 408 336 408 280 l 408 336 l 408 432 q 353 530 408 530 l 353 530 q 290 445 290 530 l 290 445 l 290 297 q 350 209 290 209 z "},"7":{"ha":686,"x_min":47,"x_max":650,"o":"m 368 1 l 98 1 q 145 313 109 168 q 228 583 181 458 q 318 812 275 708 l 318 812 l 385 973 l 47 973 l 47 1194 l 650 1194 l 650 1064 q 626 919 650 992 q 564 758 602 846 l 564 758 q 430 377 479 566 q 368 1 380 187 l 368 1 z "},"8":{"ha":686,"x_min":31,"x_max":655,"o":"m 343 -13 l 343 -13 q 103 83 175 -13 q 31 356 31 180 l 31 356 l 31 435 q 53 583 31 526 q 133 669 75 639 l 133 669 q 55 744 78 691 q 32 874 32 796 l 32 874 l 32 905 q 112 1136 32 1064 q 343 1208 191 1208 l 343 1208 q 576 1134 499 1208 q 654 896 654 1060 l 654 896 q 633 751 654 810 q 553 667 613 693 l 553 667 q 636 580 617 634 q 655 435 655 526 l 655 435 l 655 356 q 583 83 655 180 q 343 -13 511 -13 z m 343 769 l 343 769 q 406 883 406 769 l 406 883 q 393 955 406 921 q 343 989 380 989 l 343 989 q 293 955 307 989 q 280 883 280 921 l 280 883 q 343 769 280 769 z m 343 223 l 343 223 q 408 328 408 223 l 408 328 l 408 437 q 394 522 408 492 q 343 553 379 553 l 343 553 q 292 522 306 553 q 279 437 279 492 l 279 437 l 279 328 q 343 223 279 223 z "},"9":{"ha":686,"x_min":37,"x_max":670,"o":"m 341 -11 l 341 -11 q 201 15 266 -11 q 96 94 136 41 q 56 223 56 146 l 56 223 l 56 352 l 286 352 l 286 328 q 289 268 286 298 q 304 218 292 238 q 345 199 317 199 l 345 199 q 401 221 385 199 q 416 284 416 243 l 416 284 l 416 524 q 366 473 399 492 q 283 453 332 453 l 283 453 q 131 493 184 453 q 57 611 77 532 q 37 808 37 690 l 37 808 q 66 1016 37 927 q 163 1155 95 1105 q 348 1204 231 1204 l 348 1204 q 543 1162 473 1204 q 641 1035 612 1120 q 670 821 670 949 l 670 821 l 670 498 q 660 279 670 374 q 616 120 649 184 q 517 22 583 56 q 341 -11 451 -11 z m 353 664 l 353 664 q 416 749 416 664 l 416 749 l 416 897 q 357 985 416 985 l 357 985 q 307 949 315 985 q 298 858 298 913 l 298 858 l 298 762 q 353 664 298 664 z "},"A":{"ha":674,"x_min":20,"x_max":654,"o":"m 252 0 l 20 0 l 136 1194 l 541 1194 l 654 0 l 428 0 l 411 193 l 267 193 l 252 0 z m 330 990 l 284 383 l 393 383 l 340 990 l 330 990 z "},"B":{"ha":665,"x_min":53,"x_max":639,"o":"m 376 0 l 53 0 l 53 1194 l 376 1194 q 566 1130 507 1194 q 625 921 625 1067 l 625 921 l 625 869 q 595 732 625 785 q 503 664 565 680 l 503 664 q 611 569 584 644 q 639 386 639 494 l 639 386 q 617 183 639 270 q 538 48 595 96 q 376 0 481 0 l 376 0 z m 286 1009 l 286 744 l 335 744 q 378 770 368 744 q 387 831 387 795 l 387 831 l 387 951 q 336 1009 387 1009 l 336 1009 l 286 1009 z m 310 210 l 310 210 q 403 298 403 210 l 403 298 l 403 448 q 388 528 403 498 q 330 557 372 557 l 330 557 l 286 557 l 286 212 q 310 210 301 210 z "},"C":{"ha":659,"x_min":43,"x_max":632,"o":"m 331 -11 l 331 -11 q 122 70 201 -11 q 43 296 43 151 l 43 296 l 43 846 q 112 1112 43 1020 q 336 1204 181 1204 l 336 1204 q 487 1173 421 1204 q 591 1080 553 1142 q 629 924 629 1018 l 629 924 l 629 718 l 392 718 l 392 894 q 378 966 392 947 q 336 985 365 985 l 336 985 q 292 961 303 985 q 280 897 280 937 l 280 897 l 280 299 q 295 229 280 250 q 336 209 309 209 l 336 209 q 379 234 367 209 q 392 299 392 259 l 392 299 l 392 514 l 632 514 l 632 288 q 553 60 632 131 q 331 -11 473 -11 z "},"D":{"ha":685,"x_min":53,"x_max":640,"o":"m 373 0 l 53 0 l 53 1194 l 381 1194 q 575 1122 510 1194 q 640 913 640 1050 l 640 913 l 640 354 q 581 92 640 184 q 373 0 522 0 l 373 0 z m 293 985 l 293 211 l 334 211 q 400 275 400 211 l 400 275 l 400 890 q 384 967 400 950 q 319 985 368 985 l 319 985 l 293 985 z "},"E":{"ha":572,"x_min":53,"x_max":546,"o":"m 546 0 l 53 0 l 53 1194 l 530 1194 l 530 963 l 296 963 l 296 730 l 521 730 l 521 506 l 296 506 l 296 233 l 546 233 l 546 0 z "},"F":{"ha":554,"x_min":53,"x_max":530,"o":"m 293 0 l 53 0 l 53 1194 l 530 1194 l 530 961 l 293 961 l 293 771 l 518 771 l 518 541 l 293 541 l 293 0 z "},"G":{"ha":673,"x_min":43,"x_max":635,"o":"m 299 -11 l 299 -11 q 43 355 43 -11 l 43 355 l 43 870 q 336 1204 43 1204 l 336 1204 q 522 1156 457 1204 q 610 1015 586 1107 q 635 788 635 922 l 635 788 l 401 788 l 401 894 q 391 959 401 932 q 347 985 380 985 l 347 985 q 293 957 306 985 q 279 896 279 929 l 279 896 l 279 317 q 292 239 279 269 q 341 209 304 209 l 341 209 q 392 239 379 209 q 404 319 404 269 l 404 319 l 404 489 l 340 489 l 340 695 l 632 695 l 632 0 l 536 0 l 496 100 q 299 -11 433 -11 z "},"H":{"ha":693,"x_min":53,"x_max":640,"o":"m 290 0 l 53 0 l 53 1194 l 290 1194 l 290 767 l 403 767 l 403 1194 l 640 1194 l 640 0 l 403 0 l 403 541 l 290 541 l 290 0 z "},"I":{"ha":315,"x_min":42,"x_max":273,"o":"m 273 0 l 42 0 l 42 1194 l 273 1194 l 273 0 z "},"J":{"ha":648,"x_min":26,"x_max":609,"o":"m 317 -11 l 317 -11 q 170 20 237 -11 q 65 113 104 52 q 26 264 26 174 l 26 264 l 26 563 l 262 563 l 262 278 q 274 228 262 247 q 315 209 287 209 l 315 209 q 368 275 368 209 l 368 275 l 368 1194 l 609 1194 l 609 298 q 572 134 609 203 q 469 27 534 64 q 317 -11 403 -11 z "},"K":{"ha":656,"x_min":53,"x_max":668,"o":"m 290 0 l 53 0 l 53 1194 l 289 1194 l 289 715 l 400 1194 l 640 1194 l 507 647 l 668 0 l 420 0 l 290 578 l 290 0 z "},"L":{"ha":552,"x_min":53,"x_max":537,"o":"m 537 0 l 53 0 l 53 1194 l 292 1194 l 292 203 l 537 203 l 537 0 z "},"M":{"ha":1036,"x_min":53,"x_max":983,"o":"m 269 0 l 53 0 l 53 1194 l 416 1194 l 517 466 l 616 1194 l 983 1194 l 983 0 l 765 0 l 765 860 l 628 0 l 414 0 l 269 860 l 269 0 z "},"N":{"ha":692,"x_min":53,"x_max":639,"o":"m 286 0 l 53 0 l 53 1194 l 298 1194 l 408 622 l 408 1194 l 639 1194 l 639 0 l 406 0 l 286 597 l 286 0 z "},"O":{"ha":675,"x_min":43,"x_max":632,"o":"m 338 -11 l 338 -11 q 119 76 195 -11 q 43 326 43 162 l 43 326 l 43 892 q 118 1125 43 1046 q 338 1204 193 1204 l 338 1204 q 557 1125 482 1204 q 632 892 632 1046 l 632 892 l 632 326 q 556 76 632 162 q 338 -11 481 -11 z m 340 209 l 340 209 q 394 314 394 209 l 394 314 l 394 897 q 341 985 394 985 l 341 985 q 281 895 281 985 l 281 895 l 281 313 q 295 233 281 257 q 340 209 309 209 z "},"P":{"ha":656,"x_min":53,"x_max":633,"o":"m 288 0 l 53 0 l 53 1194 l 368 1194 q 525 1149 467 1194 q 608 1024 583 1105 q 633 830 633 943 l 633 830 q 612 641 633 722 q 537 517 591 561 q 385 473 484 473 l 385 473 l 288 473 l 288 0 z m 288 976 l 288 687 l 301 687 q 382 724 368 687 q 397 834 397 762 l 397 834 q 383 939 397 902 q 314 976 368 976 l 314 976 l 288 976 z "},"Q":{"ha":686,"x_min":37,"x_max":661,"o":"m 661 16 l 581 -127 l 391 -2 q 323 -11 358 -11 l 323 -11 q 110 72 184 -11 q 37 313 37 155 l 37 313 l 37 890 q 112 1124 37 1044 q 331 1204 188 1204 l 331 1204 q 550 1124 474 1204 q 625 890 625 1044 l 625 890 l 625 313 q 559 81 625 165 l 559 81 l 661 16 z m 331 209 l 331 209 q 368 228 357 209 q 382 275 379 247 q 385 328 385 302 l 385 328 l 385 886 q 375 955 385 924 q 330 985 364 985 l 330 985 q 283 955 294 985 q 273 887 273 926 l 273 887 l 273 323 q 276 273 273 300 q 291 228 279 246 q 331 209 303 209 z "},"R":{"ha":662,"x_min":53,"x_max":636,"o":"m 294 0 l 53 0 l 53 1194 l 419 1194 q 557 1152 511 1194 q 620 1035 604 1110 q 636 859 636 960 l 636 859 q 611 703 636 762 q 518 623 587 645 l 518 623 q 597 567 574 611 q 620 452 620 522 l 620 452 l 620 0 l 385 0 l 385 467 q 363 532 385 519 q 294 545 342 545 l 294 545 l 294 0 z m 296 972 l 296 751 l 353 751 q 403 859 403 751 l 403 859 q 392 951 403 929 q 351 972 381 972 l 351 972 l 296 972 z "},"S":{"ha":641,"x_min":28,"x_max":614,"o":"m 336 -11 l 336 -11 q 101 71 173 -11 q 28 330 28 152 l 28 330 l 28 446 l 264 446 l 264 297 q 277 232 264 256 q 321 209 290 209 l 321 209 q 366 228 353 209 q 378 290 378 247 l 378 290 q 368 382 378 345 q 330 453 357 419 q 256 531 303 486 l 256 531 l 149 633 q 28 892 28 746 l 28 892 q 99 1124 28 1044 q 304 1204 170 1204 l 304 1204 q 537 1117 469 1204 q 606 851 606 1029 l 606 851 l 363 851 l 363 933 q 350 971 363 958 q 312 985 336 985 l 312 985 q 270 969 283 985 q 257 928 257 953 l 257 928 q 271 873 257 903 q 324 806 284 844 l 324 806 l 462 674 q 538 591 503 635 q 593 489 572 547 q 614 348 614 431 l 614 348 q 552 84 614 180 q 336 -11 490 -11 z "},"T":{"ha":549,"x_min":14,"x_max":536,"o":"m 394 0 l 155 0 l 155 964 l 14 964 l 14 1194 l 536 1194 l 536 964 l 394 964 l 394 0 z "},"U":{"ha":658,"x_min":39,"x_max":619,"o":"m 329 -11 l 329 -11 q 109 73 180 -11 q 39 319 39 157 l 39 319 l 39 1194 l 271 1194 l 271 329 q 274 272 271 299 q 290 227 277 244 q 329 209 302 209 l 329 209 q 369 226 357 209 q 384 271 381 243 q 387 329 387 299 l 387 329 l 387 1194 l 619 1194 l 619 319 q 549 73 619 157 q 329 -11 478 -11 z "},"V":{"ha":652,"x_min":16,"x_max":635,"o":"m 488 0 l 163 0 l 16 1194 l 243 1194 l 330 382 l 408 1194 l 635 1194 l 488 0 z "},"W":{"ha":989,"x_min":18,"x_max":970,"o":"m 437 0 l 146 0 l 18 1194 l 252 1194 l 317 440 l 385 1194 l 607 1194 l 671 440 l 734 1194 l 970 1194 l 840 0 l 554 0 l 494 574 l 437 0 z "},"X":{"ha":672,"x_min":18,"x_max":654,"o":"m 260 0 l 18 0 l 146 633 l 45 1194 l 278 1194 l 340 784 l 395 1194 l 629 1194 l 527 633 l 654 0 l 413 0 l 338 467 l 260 0 z "},"Y":{"ha":620,"x_min":7,"x_max":612,"o":"m 422 0 l 197 0 l 197 393 l 7 1194 l 243 1194 l 310 789 l 376 1194 l 612 1194 l 422 393 l 422 0 z "},"Z":{"ha":570,"x_min":22,"x_max":547,"o":"m 535 0 l 22 0 l 22 217 l 295 974 l 48 974 l 48 1194 l 547 1194 l 547 985 l 269 220 l 535 220 l 535 0 z "},"a":{"ha":671,"x_min":28,"x_max":627,"o":"m 234 -11 l 234 -11 q 105 28 149 -11 q 44 136 60 68 q 28 292 28 205 l 28 292 q 46 444 28 385 q 109 541 64 503 q 231 606 153 579 l 231 606 l 382 657 l 382 762 q 328 844 382 844 l 328 844 q 279 777 279 844 l 279 777 l 279 716 l 43 716 q 43 730 43 722 q 43 749 43 739 l 43 749 q 114 965 43 901 q 341 1028 186 1028 l 341 1028 q 487 999 422 1028 q 589 914 551 970 q 627 775 627 858 l 627 775 l 627 0 l 385 0 l 385 121 q 327 23 368 57 q 234 -11 286 -11 z m 330 178 l 330 178 q 370 203 359 178 q 381 257 381 228 l 381 257 l 381 541 q 303 489 331 520 q 275 399 275 458 l 275 399 l 275 268 q 330 178 275 178 z "},"b":{"ha":696,"x_min":52,"x_max":656,"o":"m 455 -11 l 455 -11 q 358 19 395 -11 q 298 109 321 48 l 298 109 l 298 0 l 52 0 l 52 1194 l 298 1194 l 298 909 q 360 997 321 965 q 474 1028 400 1028 l 474 1028 q 615 956 574 1028 q 656 766 656 883 l 656 766 l 656 265 q 634 124 656 187 q 569 25 613 62 q 455 -11 524 -11 z m 355 178 l 355 178 q 401 216 393 178 q 410 310 410 254 l 410 310 l 410 707 q 401 801 410 764 q 355 839 393 839 l 355 839 q 307 801 316 839 q 298 707 298 762 l 298 707 l 298 310 q 307 217 298 255 q 355 178 316 178 z "},"c":{"ha":682,"x_min":41,"x_max":646,"o":"m 355 -11 l 355 -11 q 112 77 184 -11 q 41 334 41 164 l 41 334 l 41 647 q 68 859 41 774 q 163 986 95 944 q 351 1028 231 1028 l 351 1028 q 502 998 435 1028 q 608 911 569 968 q 646 770 646 853 l 646 770 l 646 614 l 399 614 l 399 757 q 389 816 399 792 q 345 840 378 840 l 345 840 q 285 755 285 840 l 285 755 l 285 262 q 298 205 285 231 q 343 179 312 179 l 343 179 q 388 204 375 179 q 400 264 400 230 l 400 264 l 400 435 l 646 435 l 646 257 q 609 113 646 173 q 505 21 571 53 q 355 -11 439 -11 z "},"d":{"ha":692,"x_min":42,"x_max":647,"o":"m 249 -11 l 249 -11 q 137 15 178 -11 q 75 86 96 41 q 48 193 55 132 q 42 323 42 254 l 42 323 l 42 766 q 84 956 42 883 q 225 1028 125 1028 l 225 1028 q 339 997 299 1028 q 400 909 378 965 l 400 909 l 400 1194 l 647 1194 l 647 0 l 400 0 l 400 108 q 346 21 380 53 q 249 -11 313 -11 z m 342 179 l 342 179 q 388 207 376 179 q 400 307 400 235 l 400 307 l 400 734 q 390 805 400 770 q 343 840 379 840 l 343 840 q 294 807 304 840 q 283 734 283 774 l 283 734 l 283 307 q 342 179 283 179 z "},"e":{"ha":678,"x_min":41,"x_max":639,"o":"m 334 -11 l 334 -11 q 161 30 225 -11 q 68 147 96 71 q 41 332 41 224 l 41 332 l 41 741 q 122 955 41 882 q 346 1028 203 1028 l 346 1028 q 639 741 639 1028 l 639 741 l 639 667 q 636 486 639 532 l 636 486 l 283 486 l 283 290 q 287 236 283 262 q 302 193 290 210 q 340 176 314 176 l 340 176 q 388 209 378 176 q 397 295 397 242 l 397 295 l 397 393 l 639 393 l 639 335 q 611 144 639 221 q 516 28 583 67 q 334 -11 449 -11 z m 282 744 l 282 607 l 397 607 l 397 744 q 384 823 397 799 q 343 847 370 847 l 343 847 q 298 824 314 847 q 282 744 282 801 l 282 744 z "},"f":{"ha":389,"x_min":27,"x_max":360,"o":"m 312 0 l 71 0 l 71 787 l 27 787 l 27 972 l 71 972 l 71 1042 q 235 1206 71 1206 l 235 1206 q 360 1186 313 1206 l 360 1186 l 360 1036 q 338 1040 343 1040 l 338 1040 q 312 1024 317 1040 q 307 985 307 1009 l 307 985 l 307 972 l 360 972 l 360 785 l 312 785 l 312 0 z "},"g":{"ha":700,"x_min":31,"x_max":654,"o":"m 323 -176 l 323 -176 q 202 -169 252 -176 q 111 -144 151 -162 q 31 -92 71 -125 l 31 -92 l 113 48 q 291 -5 202 -5 l 291 -5 q 378 33 349 -5 q 406 130 406 70 l 406 130 l 406 229 q 251 125 377 125 l 251 125 q 134 159 178 125 q 68 253 89 194 q 48 385 48 312 l 48 385 l 48 750 q 66 895 48 832 q 127 993 83 958 q 251 1028 172 1028 l 251 1028 q 356 994 318 1028 q 406 903 393 960 l 406 903 l 406 1017 l 654 1017 l 654 145 q 574 -102 654 -28 q 323 -176 494 -176 z m 349 308 l 349 308 q 406 411 406 308 l 406 411 l 406 757 q 390 814 406 785 q 347 843 374 843 l 347 843 q 302 817 311 843 q 294 757 294 791 l 294 757 l 294 411 q 303 341 294 374 q 349 308 312 308 z "},"h":{"ha":702,"x_min":49,"x_max":656,"o":"m 298 0 l 49 0 l 49 1194 l 298 1194 l 298 916 q 359 1001 318 973 q 454 1028 399 1028 l 454 1028 q 608 962 559 1028 q 656 783 656 895 l 656 783 l 656 0 l 410 0 l 410 768 q 396 822 410 801 q 353 843 382 843 l 353 843 q 313 821 328 843 q 298 770 298 800 l 298 770 l 298 0 z "},"i":{"ha":338,"x_min":47,"x_max":290,"o":"m 290 1080 l 47 1080 l 47 1282 l 290 1282 l 290 1080 z m 290 0 l 47 0 l 47 1017 l 290 1017 l 290 0 z "},"j":{"ha":365,"x_min":23,"x_max":317,"o":"m 317 1080 l 75 1080 l 75 1282 l 317 1282 l 317 1080 z m 126 -176 l 126 -176 q 23 -159 49 -176 l 23 -159 l 23 4 q 45 1 35 1 l 45 1 q 70 14 65 1 q 75 49 75 28 l 75 49 l 75 1017 l 317 1017 l 317 56 q 274 -115 317 -53 q 126 -176 231 -176 z "},"k":{"ha":682,"x_min":49,"x_max":699,"o":"m 289 0 l 49 0 l 49 1194 l 289 1194 l 289 667 l 406 1017 l 657 1017 l 505 575 l 699 0 l 440 0 l 289 479 l 289 0 z "},"l":{"ha":345,"x_min":49,"x_max":296,"o":"m 296 0 l 49 0 l 49 1194 l 296 1194 l 296 0 z "},"m":{"ha":1053,"x_min":49,"x_max":1007,"o":"m 292 0 l 49 0 l 49 1017 l 286 1017 l 286 899 q 342 995 302 962 q 457 1028 381 1028 l 457 1028 q 561 1000 518 1028 q 622 926 604 972 l 622 926 q 687 1002 650 976 q 795 1028 725 1028 l 795 1028 q 925 992 880 1028 q 989 891 971 956 q 1007 743 1007 827 l 1007 743 l 1007 0 l 765 0 l 765 747 q 715 846 765 846 l 715 846 q 674 828 688 846 q 654 783 660 810 q 649 730 649 757 l 649 730 l 649 0 l 407 0 l 407 747 q 399 811 407 779 q 359 843 391 843 l 359 843 q 317 823 332 843 q 297 775 302 804 q 292 718 292 746 l 292 718 l 292 0 z "},"n":{"ha":692,"x_min":49,"x_max":646,"o":"m 292 0 l 49 0 l 49 1017 l 292 1017 l 292 888 q 342 987 305 946 q 445 1028 379 1028 l 445 1028 q 598 963 551 1028 q 646 785 646 898 l 646 785 l 646 0 l 407 0 l 407 760 q 395 815 407 789 q 353 840 382 840 l 353 840 q 312 821 325 840 q 295 773 298 802 q 292 715 292 744 l 292 715 l 292 0 z "},"o":{"ha":690,"x_min":41,"x_max":649,"o":"m 345 -11 l 345 -11 q 41 304 41 -11 l 41 304 l 41 713 q 121 942 41 857 q 345 1028 202 1028 l 345 1028 q 568 942 488 1028 q 649 713 649 857 l 649 713 l 649 304 q 345 -11 649 -11 z m 345 176 l 345 176 q 388 198 375 176 q 401 254 401 220 l 401 254 l 401 751 q 345 840 401 840 l 345 840 q 288 751 288 840 l 288 751 l 288 254 q 301 198 288 220 q 345 176 314 176 z "},"p":{"ha":696,"x_min":49,"x_max":653,"o":"m 296 -170 l 49 -170 l 49 1017 l 296 1017 l 296 909 q 358 997 318 965 q 471 1028 397 1028 l 471 1028 q 612 956 571 1028 q 653 766 653 883 l 653 766 l 653 265 q 631 124 653 187 q 562 25 609 62 q 439 -11 515 -11 l 439 -11 q 296 109 340 -11 l 296 109 l 296 -170 z m 353 178 l 353 178 q 399 216 391 178 q 407 310 407 254 l 407 310 l 407 707 q 399 801 407 764 q 353 839 391 839 l 353 839 q 305 801 314 839 q 296 707 296 762 l 296 707 l 296 310 q 305 217 296 255 q 353 178 314 178 z "},"q":{"ha":692,"x_min":42,"x_max":647,"o":"m 647 -170 l 400 -170 l 400 108 q 346 21 380 53 q 249 -11 313 -11 l 249 -11 q 137 15 178 -11 q 75 86 96 41 q 48 193 55 132 q 42 323 42 254 l 42 323 l 42 766 q 84 956 42 883 q 225 1028 125 1028 l 225 1028 q 339 997 299 1028 q 400 909 378 965 l 400 909 l 400 1017 l 647 1017 l 647 -170 z m 342 179 l 342 179 q 387 212 374 179 q 400 305 400 245 l 400 305 l 400 734 q 390 805 400 770 q 343 840 379 840 l 343 840 q 294 807 304 840 q 283 734 283 774 l 283 734 l 283 307 q 342 179 283 179 z "},"r":{"ha":481,"x_min":49,"x_max":471,"o":"m 296 0 l 49 0 l 49 1017 l 296 1017 l 296 904 q 358 996 313 963 q 471 1029 403 1029 l 471 1029 l 471 827 q 399 820 441 827 q 327 803 358 814 q 296 778 296 791 l 296 778 l 296 0 z "},"s":{"ha":659,"x_min":26,"x_max":633,"o":"m 328 -11 l 328 -11 q 26 294 26 -11 l 26 294 l 26 375 l 271 375 l 271 256 q 284 201 271 221 q 328 182 298 182 l 328 182 q 380 261 380 182 l 380 261 q 353 360 380 328 q 285 424 325 393 l 285 424 l 155 524 q 62 624 94 571 q 31 771 31 677 l 31 771 q 72 916 31 859 q 183 1000 114 972 q 332 1028 252 1028 l 332 1028 q 627 733 627 1028 l 627 733 l 627 714 l 376 714 l 376 753 q 366 812 376 783 q 325 840 355 840 l 325 840 q 273 786 273 840 l 273 786 q 317 700 273 731 l 317 700 l 467 590 q 586 469 538 539 q 633 283 633 399 l 633 283 q 552 64 633 140 q 328 -11 470 -11 z "},"t":{"ha":424,"x_min":22,"x_max":395,"o":"m 258 -11 l 258 -11 q 125 31 159 -11 q 91 159 91 73 l 91 159 l 91 793 l 22 793 l 22 978 l 91 978 l 91 1194 l 327 1194 l 327 978 l 395 978 l 395 793 l 327 793 l 327 216 q 335 180 327 191 q 366 170 343 170 l 366 170 q 395 173 382 170 l 395 173 l 395 7 q 345 -3 387 5 q 258 -11 302 -11 z "},"u":{"ha":693,"x_min":46,"x_max":644,"o":"m 245 -11 l 245 -11 q 120 23 163 -11 q 62 118 77 57 q 46 260 46 178 l 46 260 l 46 1017 l 290 1017 l 290 288 q 300 203 290 227 q 345 179 309 179 l 345 179 q 392 213 382 179 q 402 300 402 247 l 402 300 l 402 1017 l 644 1017 l 644 0 l 401 0 l 401 109 q 346 20 378 50 q 245 -11 314 -11 z "},"v":{"ha":640,"x_min":15,"x_max":625,"o":"m 459 0 l 178 0 l 15 1017 l 258 1017 l 317 338 l 382 1017 l 625 1017 l 459 0 z "},"w":{"ha":967,"x_min":33,"x_max":935,"o":"m 418 0 l 155 0 l 33 1017 l 241 1017 l 308 471 l 367 1017 l 600 1017 l 669 471 l 726 1017 l 935 1017 l 810 0 l 555 0 l 481 577 l 418 0 z "},"x":{"ha":637,"x_min":5,"x_max":632,"o":"m 189 0 l 5 0 l 192 547 l 22 1018 l 270 1018 l 357 771 l 444 1018 l 624 1018 l 449 515 l 632 0 l 389 0 l 286 286 l 189 0 z "},"y":{"ha":640,"x_min":11,"x_max":625,"o":"m 303 -170 l 29 -170 l 29 -16 l 146 -16 q 172 3 172 -16 l 172 3 q 170 22 172 12 l 170 22 l 11 1017 l 243 1017 l 311 269 l 391 1017 l 625 1017 l 437 -53 q 398 -140 427 -111 q 303 -170 369 -170 l 303 -170 z "},"z":{"ha":536,"x_min":19,"x_max":526,"o":"m 526 0 l 19 0 l 19 149 l 273 825 l 31 825 l 31 1017 l 524 1017 l 524 852 l 285 182 l 526 182 l 526 0 z "}," ":{"ha":326,"x_min":0,"x_max":0,"o":""},".":{"ha":317,"x_min":37,"x_max":280,"o":"m 280 1 l 37 1 l 37 203 l 280 203 l 280 1 z "},",":{"ha":328,"x_min":37,"x_max":291,"o":"m 222 -159 l 79 -159 l 123 1 l 37 1 l 37 203 l 291 203 l 291 7 l 222 -159 z "},"!":{"ha":318,"x_min":37,"x_max":280,"o":"m 233 325 l 85 325 l 37 1194 l 280 1194 l 233 325 z m 280 1 l 37 1 l 37 203 l 280 203 l 280 1 z "},"?":{"ha":684,"x_min":33,"x_max":663,"o":"m 312 309 l 86 309 l 86 591 q 232 600 171 591 q 331 637 292 608 q 389 723 370 665 q 408 878 408 781 l 408 878 q 396 955 408 922 q 345 988 385 988 l 345 988 q 302 969 315 988 q 284 922 288 951 q 281 862 281 893 l 281 862 l 281 763 l 33 763 l 33 935 q 120 1138 33 1072 q 345 1204 207 1204 l 345 1204 q 535 1161 465 1204 q 634 1035 604 1118 q 663 831 663 951 l 663 831 q 625 622 663 714 q 509 477 587 530 q 312 424 431 424 l 312 424 l 312 309 z m 321 1 l 79 1 l 79 203 l 321 203 l 321 1 z "},"&":{"ha":722,"x_min":24,"x_max":702,"o":"m 262 -14 l 262 -14 q 87 72 151 -14 q 24 309 24 158 l 24 309 q 43 488 24 417 q 97 607 62 559 q 176 690 132 654 l 176 690 l 171 703 q 121 838 142 774 q 100 970 100 902 l 100 970 q 129 1091 100 1038 q 210 1174 158 1144 q 329 1204 262 1204 l 329 1204 q 450 1176 395 1204 q 537 1089 505 1147 q 570 943 570 1031 l 570 943 q 534 783 570 848 q 427 659 498 719 l 427 659 l 492 495 q 608 652 532 596 l 608 652 l 702 505 q 570 299 623 441 l 570 299 l 690 0 l 459 0 l 433 64 q 362 9 406 32 q 262 -14 317 -14 z m 313 991 l 313 991 q 321 939 313 973 q 363 821 330 905 l 363 821 q 386 863 376 834 q 396 943 396 892 l 396 943 q 384 1017 396 996 q 351 1038 371 1038 l 351 1038 q 322 1023 331 1038 q 313 991 313 1008 z m 231 334 l 231 280 q 300 159 231 159 l 300 159 q 345 180 328 159 q 368 223 361 201 l 368 223 l 254 500 q 231 334 231 453 l 231 334 z "},"'":{"ha":297,"x_min":28,"x_max":267,"o":"m 215 762 l 96 762 l 28 1194 l 267 1194 l 215 762 z "},"\"":{"ha":595,"x_min":28,"x_max":565,"o":"m 215 762 l 96 762 l 28 1194 l 267 1194 l 215 762 z m 513 762 l 394 762 l 326 1194 l 565 1194 l 513 762 z "},"-":{"ha":432,"x_min":41,"x_max":391,"o":"m 391 345 l 41 345 l 41 503 l 391 503 l 391 345 z "},":":{"ha":336,"x_min":46,"x_max":289,"o":"m 289 662 l 46 662 l 46 864 l 289 864 l 289 662 z m 289 161 l 46 161 l 46 363 l 289 363 l 289 161 z "}}}
